<svg width="314" height="184" viewBox="0 0 314 184" fill="none" xmlns="http://www.w3.org/2000/svg">
<rect x="0.5" y="0.5" width="313" height="183" rx="11.5" fill="#232D3F"/>
<rect x="0.5" y="0.5" width="313" height="183" rx="11.5" stroke="#5C5470"/>
<rect x="1" y="1" width="312" height="182" rx="11" fill="black"/>
<path fill-rule="evenodd" clip-rule="evenodd" d="M157 69.25C144.435 69.25 134.25 79.435 134.25 92C134.25 104.565 144.435 114.75 157 114.75C169.565 114.75 179.75 104.565 179.75 92C179.75 79.435 169.565 69.25 157 69.25ZM152.987 85.5133C152.826 85.3414 152.633 85.2035 152.419 85.1078C152.204 85.0122 151.972 84.9608 151.737 84.9566C151.502 84.9525 151.269 84.9957 151.051 85.0837C150.833 85.1717 150.635 85.3027 150.469 85.4689C150.303 85.6351 150.172 85.833 150.084 86.0509C149.996 86.2688 149.952 86.5022 149.957 86.7372C149.961 86.9722 150.012 87.2039 150.108 87.4186C150.203 87.6333 150.341 87.8265 150.513 87.9867L154.527 92L150.513 96.0133C150.341 96.1735 150.203 96.3667 150.108 96.5814C150.012 96.7961 149.961 97.0278 149.957 97.2628C149.952 97.4978 149.996 97.7312 150.084 97.9491C150.172 98.167 150.303 98.3649 150.469 98.5311C150.635 98.6973 150.833 98.8283 151.051 98.9163C151.269 99.0043 151.502 99.0475 151.737 99.0434C151.972 99.0392 152.204 98.9878 152.419 98.8922C152.633 98.7965 152.826 98.6586 152.987 98.4867L157 94.4733L161.013 98.4867C161.174 98.6586 161.367 98.7965 161.581 98.8922C161.796 98.9878 162.028 99.0392 162.263 99.0434C162.498 99.0475 162.731 99.0043 162.949 98.9163C163.167 98.8283 163.365 98.6973 163.531 98.5311C163.697 98.3649 163.828 98.167 163.916 97.9491C164.004 97.7312 164.048 97.4978 164.043 97.2628C164.039 97.0278 163.988 96.7961 163.892 96.5814C163.797 96.3667 163.659 96.1735 163.487 96.0133L159.473 92L163.487 87.9867C163.659 87.8265 163.797 87.6333 163.892 87.4186C163.988 87.2039 164.039 86.9722 164.043 86.7372C164.048 86.5022 164.004 86.2688 163.916 86.0509C163.828 85.833 163.697 85.6351 163.531 85.4689C163.365 85.3027 163.167 85.1717 162.949 85.0837C162.731 84.9957 162.498 84.9525 162.263 84.9566C162.028 84.9608 161.796 85.0122 161.581 85.1078C161.367 85.2035 161.174 85.3414 161.013 85.5133L157 89.5267L152.987 85.5133Z" fill="#FF0000"/>
</svg>
