 <svg width="46" height="46" viewBox="0 0 46 46" fill="none" xmlns="http://www.w3.org/2000/svg">
<path fill-rule="evenodd" clip-rule="evenodd" d="M23 0.25C10.435 0.25 0.25 10.435 0.25 23C0.25 35.565 10.435 45.75 23 45.75C35.565 45.75 45.75 35.565 45.75 23C45.75 10.435 35.565 0.25 23 0.25ZM18.9867 16.5133C18.8265 16.3414 18.6333 16.2035 18.4186 16.1078C18.2039 16.0122 17.9722 15.9608 17.7372 15.9566C17.5022 15.9525 17.2688 15.9957 17.0509 16.0837C16.833 16.1717 16.6351 16.3027 16.4689 16.4689C16.3027 16.6351 16.1717 16.833 16.0837 17.0509C15.9957 17.2688 15.9525 17.5022 15.9566 17.7372C15.9608 17.9722 16.0122 18.2039 16.1078 18.4186C16.2035 18.6333 16.3414 18.8265 16.5133 18.9867L20.5267 23L16.5133 27.0133C16.3414 27.1735 16.2035 27.3667 16.1078 27.5814C16.0122 27.7961 15.9608 28.0278 15.9566 28.2628C15.9525 28.4978 15.9957 28.7312 16.0837 28.9491C16.1717 29.167 16.3027 29.3649 16.4689 29.5311C16.6351 29.6973 16.833 29.8283 17.0509 29.9163C17.2688 30.0043 17.5022 30.0475 17.7372 30.0434C17.9722 30.0392 18.2039 29.9878 18.4186 29.8922C18.6333 29.7965 18.8265 29.6586 18.9867 29.4867L23 25.4733L27.0133 29.4867C27.1735 29.6586 27.3667 29.7965 27.5814 29.8922C27.7961 29.9878 28.0278 30.0392 28.2628 30.0434C28.4978 30.0475 28.7312 30.0043 28.9491 29.9163C29.167 29.8283 29.3649 29.6973 29.5311 29.5311C29.6973 29.3649 29.8283 29.167 29.9163 28.9491C30.0043 28.7312 30.0475 28.4978 30.0434 28.2628C30.0392 28.0278 29.9878 27.7961 29.8922 27.5814C29.7965 27.3667 29.6586 27.1735 29.4867 27.0133L25.4733 23L29.4867 18.9867C29.6586 18.8265 29.7965 18.6333 29.8922 18.4186C29.9878 18.2039 30.0392 17.9722 30.0434 17.7372C30.0475 17.5022 30.0043 17.2688 29.9163 17.0509C29.8283 16.833 29.6973 16.6351 29.5311 16.4689C29.3649 16.3027 29.167 16.1717 28.9491 16.0837C28.7312 15.9957 28.4978 15.9525 28.2628 15.9566C28.0278 15.9608 27.7961 16.0122 27.5814 16.1078C27.3667 16.2035 27.1735 16.3414 27.0133 16.5133L23 20.5267L18.9867 16.5133Z" fill="#FF0000"/>
</svg>
