<svg width="314" height="184" viewBox="0 0 314 184" fill="none" xmlns="http://www.w3.org/2000/svg">
<rect x="0.5" y="0.5" width="313" height="183" rx="11.5" fill="#232D3F"/>
<rect x="0.5" y="0.5" width="313" height="183" rx="11.5" stroke="#5C5470"/>
<rect x="1" y="1" width="312" height="182" rx="11" fill="black"/>
<path fill-rule="evenodd" clip-rule="evenodd" d="M150.936 71.007C153.631 66.3403 160.369 66.3403 163.062 71.007L180.224 100.752C182.916 105.419 179.547 111.252 174.159 111.252H139.838C134.451 111.252 131.084 105.419 133.776 100.752L150.933 71.007H150.936ZM157 83.25C157.464 83.25 157.909 83.4344 158.237 83.7626C158.566 84.0908 158.75 84.5359 158.75 85V93.75C158.75 94.2141 158.566 94.6592 158.237 94.9874C157.909 95.3156 157.464 95.5 157 95.5C156.536 95.5 156.091 95.3156 155.763 94.9874C155.434 94.6592 155.25 94.2141 155.25 93.75V85C155.25 84.5359 155.434 84.0908 155.763 83.7626C156.091 83.4344 156.536 83.25 157 83.25ZM157 102.5C157.464 102.5 157.909 102.316 158.237 101.987C158.566 101.659 158.75 101.214 158.75 100.75C158.75 100.286 158.566 99.8408 158.237 99.5126C157.909 99.1844 157.464 99 157 99C156.536 99 156.091 99.1844 155.763 99.5126C155.434 99.8408 155.25 100.286 155.25 100.75C155.25 101.214 155.434 101.659 155.763 101.987C156.091 102.316 156.536 102.5 157 102.5Z" fill="#FFB800"/>
</svg>
