 <svg width="50" height="45" viewBox="0 0 50 45" fill="none" xmlns="http://www.w3.org/2000/svg">
<path fill-rule="evenodd" clip-rule="evenodd" d="M18.9357 4.007C21.6307 -0.659667 28.3693 -0.659667 31.062 4.007L48.2237 33.7523C50.9163 38.419 47.547 44.2523 42.1593 44.2523H7.83833C2.45066 44.2523 -0.916335 38.419 1.77633 33.7523L18.9333 4.007H18.9357ZM25 16.25C25.4641 16.25 25.9092 16.4344 26.2374 16.7626C26.5656 17.0908 26.75 17.5359 26.75 18V26.75C26.75 27.2141 26.5656 27.6592 26.2374 27.9874C25.9092 28.3156 25.4641 28.5 25 28.5C24.5359 28.5 24.0907 28.3156 23.7626 27.9874C23.4344 27.6592 23.25 27.2141 23.25 26.75V18C23.25 17.5359 23.4344 17.0908 23.7626 16.7626C24.0907 16.4344 24.5359 16.25 25 16.25ZM25 35.5C25.4641 35.5 25.9092 35.3156 26.2374 34.9874C26.5656 34.6592 26.75 34.2141 26.75 33.75C26.75 33.2859 26.5656 32.8408 26.2374 32.5126C25.9092 32.1844 25.4641 32 25 32C24.5359 32 24.0907 32.1844 23.7626 32.5126C23.4344 32.8408 23.25 33.2859 23.25 33.75C23.25 34.2141 23.4344 34.6592 23.7626 34.9874C24.0907 35.3156 24.5359 35.5 25 35.5Z" fill="#FFB800"/>
</svg>
